<svg id="epxbmfb2s2oa1"
  xmlns="http://www.w3.org/2000/svg"
  xmlns:xlink="http://www.w3.org/1999/xlink" viewBox="0 0 96 95" shape-rendering="geometricPrecision" text-rendering="geometricPrecision">
  <style><![CDATA[#epxbmfb2s2oa3_ts {animation: epxbmfb2s2oa3_ts__ts 3500ms linear infinite normal forwards}@keyframes epxbmfb2s2oa3_ts__ts { 0% {transform: translate(32.449399px,61.475651px) scale(0,0);animation-timing-function: cubic-bezier(0.420000,0,0.580000,1)} 14.285714% {transform: translate(32.449399px,61.475651px) scale(1,1);animation-timing-function: cubic-bezier(0.420000,0,0.580000,1)} 22.857143% {transform: translate(32.449399px,61.475651px) scale(0.800000,0.800000)} 31.428571% {transform: translate(32.449399px,61.475651px) scale(1,1)} 42.857143% {transform: translate(32.449399px,61.475651px) scale(1,1)} 51.428571% {transform: translate(32.449399px,61.475651px) scale(0.800000,0.800000)} 60% {transform: translate(32.449399px,61.475651px) scale(1,1)} 65.714286% {transform: translate(32.449399px,61.475651px) scale(0,0)} 100% {transform: translate(32.449399px,61.475651px) scale(0,0)} }#epxbmfb2s2oa4_tr {animation: epxbmfb2s2oa4_tr__tr 3500ms linear infinite normal forwards}@keyframes epxbmfb2s2oa4_tr__tr { 0% {transform: translate(53.342150px,41.273399px) rotate(180deg);animation-timing-function: cubic-bezier(0.680000,-0.550000,0.265000,1.550000)} 28.571429% {transform: translate(53.342150px,41.273399px) rotate(0deg);animation-timing-function: cubic-bezier(0.680000,-0.550000,0.265000,1.550000)} 42.857143% {transform: translate(53.342150px,41.273399px) rotate(0deg);animation-timing-function: cubic-bezier(0.680000,-0.550000,0.265000,1.550000)} 85.714286% {transform: translate(53.342150px,41.273399px) rotate(180deg)} 100% {transform: translate(53.342150px,41.273399px) rotate(180deg)} }]]></style>
  <path id="epxbmfb2s2oa2" d="M32.449400,72.925100C38.772800,72.925100,43.898800,67.799000,43.898800,61.475700C43.898800,55.152300,38.772800,50.026200,32.449400,50.026200C26.126100,50.026200,21,55.152300,21,61.475700C21,67.799000,26.126100,72.925100,32.449400,72.925100Z" clip-rule="evenodd" fill="rgb(0,0,0)" fill-rule="evenodd" stroke="none" stroke-width="1"/>
  <g id="epxbmfb2s2oa3_ts" transform="translate(32.449399,61.475651) scale(0,0)">
    <path id="epxbmfb2s2oa3" d="M32.449400,70.390800C37.373100,70.390800,41.364500,66.399300,41.364500,61.475700C41.364500,56.552000,37.373100,52.560500,32.449400,52.560500C27.525700,52.560500,23.534300,56.552000,23.534300,61.475700C23.534300,66.399300,27.525700,70.390800,32.449400,70.390800Z" transform="translate(-32.449399,-61.475651)" fill="rgb(255,255,255)" stroke="none" stroke-width="1"/>
  </g>
  <g id="epxbmfb2s2oa4_tr" transform="translate(53.342150,41.273399) rotate(180)">
    <path id="epxbmfb2s2oa4" d="M32.068700,41.273400C32.068700,29.524400,41.593200,20,53.342100,20L53.342100,20C65.091100,20,74.615600,29.524400,74.615600,41.273400L74.615600,41.273400C74.615600,53.022400,65.091100,62.546800,53.342100,62.546800L32.068700,62.546800L32.068700,41.273400Z" transform="translate(-53.342150,-41.273399)" fill="rgb(0,0,0)" stroke="none" stroke-width="1"/>
  </g>
</svg>