<?xml version="1.0" standalone="no"?>
<!DOCTYPE svg PUBLIC "-//W3C//DTD SVG 20010904//EN"
 "http://www.w3.org/TR/2001/REC-SVG-20010904/DTD/svg10.dtd">
<svg version="1.0" xmlns="http://www.w3.org/2000/svg"
 width="524.000000pt" height="524.000000pt" viewBox="0 0 524.000000 524.000000"
 preserveAspectRatio="xMidYMid meet">
<metadata>
Created by potrace 1.11, written by Peter Selinger 2001-2013
</metadata>
<g transform="translate(0.000000,524.000000) scale(0.100000,-0.100000)"
fill="#000000" stroke="none">
<path d="M2977 5164 c-1 -1 -34 -4 -72 -8 -178 -16 -411 -74 -574 -141 -357
-147 -673 -397 -885 -700 -31 -44 -60 -84 -64 -90 -25 -32 -114 -202 -167
-320 -46 -101 -114 -349 -130 -470 -4 -27 -9 -61 -12 -75 -5 -21 -14 -703 -13
-985 l0 -90 -43 -2 c-57 -3 -176 -23 -207 -35 -14 -5 -32 -11 -41 -13 -74 -15
-263 -114 -349 -183 -85 -68 -233 -231 -251 -277 -2 -5 -21 -39 -41 -75 -35
-62 -91 -212 -102 -275 -3 -16 -10 -52 -15 -78 -13 -69 -10 -254 5 -340 19
-110 42 -181 94 -292 118 -252 346 -461 602 -554 137 -50 200 -61 358 -66 309
-10 588 101 804 319 161 164 250 331 300 566 l22 105 520 1 c285 0 546 4 579
8 96 11 226 33 257 42 10 3 30 7 44 10 14 3 70 19 123 36 698 222 1228 807
1377 1518 13 63 27 142 31 175 10 77 10 398 1 492 -11 106 -51 284 -92 406
-30 92 -114 286 -146 337 -5 8 -22 38 -38 65 -101 172 -286 387 -442 515 -30
25 -57 47 -60 51 -14 17 -226 152 -300 191 -176 93 -439 183 -600 204 -19 2
-46 6 -60 9 -61 13 -402 28 -413 19z m-1917 -3191 c0 -38 1 -252 3 -478 l2
-410 440 0 440 0 -3 -35 c-10 -96 -91 -286 -162 -378 -135 -174 -337 -295
-550 -328 -57 -9 -200 -10 -265 -1 -59 8 -192 50 -250 79 -49 25 -150 95 -194
134 -91 81 -186 226 -229 349 -43 121 -59 307 -37 429 53 300 268 555 555 659
67 24 162 45 213 46 l37 1 0 -67z"/>
</g>
</svg>
